<?xml version="1.0" encoding="utf-8"?>
<!-- Generator: Adobe Illustrator 24.3.0, SVG Export Plug-In . SVG Version: 6.00 Build 0)  -->
<svg version="1.1" xmlns="http://www.w3.org/2000/svg" xmlns:xlink="http://www.w3.org/1999/xlink" x="0px" y="0px"
	 viewBox="0 0 750 500" style="enable-background:new 0 0 750 500;" xml:space="preserve">
<style type="text/css">
	.st0{fill:#FFFFFF;}
	.st1{opacity:0.81;fill:#ECF1F7;}
	.st2{opacity:0.47;fill:#ECF1F7;}
	.st3{fill:#ECF1F7;}
	.st4{opacity:0.58;fill:#3E479B;}
	.st5{opacity:0.58;fill:#EF929C;}
	.st6{opacity:0.47;fill:#FFFFFF;}
	.st7{opacity:0.53;fill:#4C65BA;}
	.st8{opacity:0.47;fill:#599AF2;}
	.st9{opacity:0.74;fill:#EF929C;}
	.st10{fill:#373449;}
	.st11{fill:#F9DCD2;}
	.st12{fill:#EF929C;}
	.st13{opacity:0.37;fill:#EF929C;}
	.st14{opacity:0.79;fill:#3E479B;}
	.st15{fill:#3E479B;}
	.st16{fill:#4C65BA;}
	.st17{opacity:0.9;fill:#FFFFFF;}
	.st18{opacity:0.15;fill:#FFFFFF;}
	.st19{opacity:0.5;fill:#FFFFFF;}
	.st20{opacity:0.7;fill:#FFFFFF;}
	.st21{opacity:0.1;fill:#FFFFFF;}
	.st22{opacity:0.3;fill:#FFFFFF;}
	.st23{fill:#599AF2;}
	.st24{opacity:0.12;fill:#FFFFFF;}
	.st25{opacity:0.21;fill:#FFFFFF;}
	.st26{opacity:0.1;}
</style>
<g id="BACKGROUND">
	<rect class="st0" width="750" height="500"/>
	<g>
		<g>
			<path class="st1" d="M51.63,240.44c-11.19-8.72-13.19-24.85-4.47-36.04c8.72-11.19,30.91-20.96,42.09-12.24
				c11.19,8.72-1.87,26.71-4.1,40.72C82.04,252.41,62.81,249.16,51.63,240.44z"/>
			<path class="st2" d="M684.31,311.17c9.76,3.02,15.23,13.38,12.22,23.14c-3.02,9.76-15.47,22.02-25.24,19
				c-9.76-3.02-5.56-18.48-7.64-28.48C660.76,310.87,674.55,308.15,684.31,311.17z"/>
			<path class="st2" d="M666.75,91.77c-4.27,13.82-18.93,21.56-32.75,17.29c-13.82-4.27-31.16-21.9-26.89-35.72
				c4.27-13.82,26.15-7.87,40.31-10.81C667.17,58.44,671.02,77.95,666.75,91.77z"/>
		</g>
		<g>
			<path class="st3" d="M621.86,388.65c5.36-27.39-3.07-50.72-5.12-77.57c-1.94-25.41,6.79-46.81,11.67-71.03
				c4.34-21.55,2.97-45.95-2.36-67.11c-7.28-28.89-24.13-55.62-48.47-71.87c-37.92-25.33-88.59-22.21-130.59-4.61
				c-17.59,7.37-34.64,17.16-53.47,19.68c-27.46,3.67-54.15-8.57-80.87-15.88c-36.38-9.95-76.34-10.6-110.72,5.35
				c-38.99,18.08-66.78,58.73-63.65,103.43c1.42,20.25,8.87,40.22,6.16,60.35c-2.74,20.41-14.45,37.52-20.66,56.75
				c-9.21,28.48-9.44,71.42,7.86,97.87h476.93C614.9,413.18,619.42,401.14,621.86,388.65z"/>
			<g>
				<path class="st2" d="M682.85,213.47c-2.88-30.18-16.89-60.39-41.2-81.96C603.78,97.9,546.43,89.5,496.14,97.35
					c-21.06,3.29-41.95,9.09-63.51,7.31c-31.44-2.61-59.12-20.74-87.74-34.02c-38.95-18.08-83.62-27.77-125.06-19.82
					c-46.99,9.01-85.56,42.85-90.22,87.69c-2.11,20.32,19,56.08,12.3,75.34c-6.8,19.54-56.34,79.41-55.19,124.91
					c1.2,47.15,13.46,60.49,30.55,85.25h14.36h476.93h30.85c10.75-25.07,20.06-44.06,7.78-76.23
					c-9.34-24.48,16.16-44.68,26.05-67.49C682.04,259.98,684.96,235.57,682.85,213.47z"/>
			</g>
		</g>
	</g>
	<circle class="st4" cx="697.16" cy="271.38" r="4.59"/>
	<circle class="st4" cx="351.08" cy="37.59" r="4.59"/>
	<path class="st5" d="M668.06,398.99c0,1.97-1.6,3.57-3.57,3.57s-3.57-1.6-3.57-3.57c0-1.97,1.6-3.57,3.57-3.57
		S668.06,397.01,668.06,398.99z"/>
	<circle class="st5" cx="110.15" cy="112.12" r="4.59"/>
	<circle class="st4" cx="75.44" cy="284.65" r="3.57"/>
	<path class="st4" d="M82.07,134.58c0,0.85-0.69,1.53-1.53,1.53s-1.53-0.69-1.53-1.53c0-0.85,0.69-1.53,1.53-1.53
		S82.07,133.73,82.07,134.58z"/>
	<path class="st5" d="M474.56,48.53c-0.64,2.98-3.57,4.88-6.55,4.24c-2.98-0.64-4.88-3.57-4.24-6.55c0.64-2.98,3.57-4.88,6.55-4.24
		C473.3,42.62,475.2,45.55,474.56,48.53z"/>
	<path class="st5" d="M57.02,313.97c-0.64,2.98-3.57,4.88-6.55,4.24c-2.98-0.64-4.88-3.57-4.24-6.55c0.64-2.98,3.57-4.88,6.55-4.24
		C55.76,308.05,57.66,310.99,57.02,313.97z"/>
	<path class="st4" d="M426.48,82.03c-0.21,0.99-1.19,1.63-2.18,1.41c-0.99-0.21-1.63-1.19-1.41-2.18c0.21-0.99,1.19-1.63,2.18-1.41
		C426.06,80.06,426.69,81.04,426.48,82.03z"/>
</g>
<g id="OBJECTS">
	<g>
		<g>
			<g>
				<path class="st6" d="M662.61,326.28h-96.27c-2.49,0-4.5-2.01-4.5-4.5V216.85c0-2.49,2.01-4.5,4.5-4.5h96.27
					c2.49,0,4.5,2.01,4.5,4.5v104.93C667.11,324.27,665.09,326.28,662.61,326.28z"/>
				<path class="st0" d="M643.5,233.71h-58.06c-1.08,0-1.95-0.87-1.95-1.95v-8.08c0-1.08,0.87-1.95,1.95-1.95h58.06
					c1.08,0,1.95,0.87,1.95,1.95v8.08C645.45,232.84,644.58,233.71,643.5,233.71z"/>
				<path class="st0" d="M643.5,242.99h-58.06c-1.08,0-1.95-0.87-1.95-1.95v-0.07c0-1.08,0.87-1.95,1.95-1.95h58.06
					c1.08,0,1.95,0.87,1.95,1.95v0.07C645.45,242.12,644.58,242.99,643.5,242.99z"/>
				<path class="st0" d="M643.5,252.15h-58.06c-1.08,0-1.95-0.87-1.95-1.95v-0.07c0-1.08,0.87-1.95,1.95-1.95h58.06
					c1.08,0,1.95,0.87,1.95,1.95v0.07C645.45,251.27,644.58,252.15,643.5,252.15z"/>
				<path class="st0" d="M587.49,265.65c0,2.76-2.24,5-5,5s-5-2.24-5-5c0-2.76,2.24-5,5-5S587.49,262.89,587.49,265.65z"/>
				<path class="st0" d="M587.49,288.3c0,2.76-2.24,5-5,5s-5-2.24-5-5s2.24-5,5-5S587.49,285.54,587.49,288.3z"/>
				<path class="st0" d="M587.49,310.29c0,2.76-2.24,5-5,5s-5-2.24-5-5c0-2.76,2.24-5,5-5S587.49,307.53,587.49,310.29z"/>
				<path class="st0" d="M638.13,263.71h-47.81c-0.28,0-0.5-0.22-0.5-0.5c0-0.28,0.22-0.5,0.5-0.5h47.81c0.28,0,0.5,0.22,0.5,0.5
					C638.63,263.49,638.41,263.71,638.13,263.71z"/>
				<path class="st0" d="M614.22,268.8h-23.91c-0.28,0-0.5-0.22-0.5-0.5c0-0.28,0.22-0.5,0.5-0.5h23.91c0.28,0,0.5,0.22,0.5,0.5
					C614.72,268.57,614.5,268.8,614.22,268.8z"/>
				<path class="st0" d="M638.13,287.11h-47.81c-0.28,0-0.5-0.22-0.5-0.5c0-0.28,0.22-0.5,0.5-0.5h47.81c0.28,0,0.5,0.22,0.5,0.5
					C638.63,286.88,638.41,287.11,638.13,287.11z"/>
				<path class="st0" d="M614.22,292.19h-23.91c-0.28,0-0.5-0.22-0.5-0.5c0-0.28,0.22-0.5,0.5-0.5h23.91c0.28,0,0.5,0.22,0.5,0.5
					C614.72,291.97,614.5,292.19,614.22,292.19z"/>
				<path class="st0" d="M638.13,308.47h-47.81c-0.28,0-0.5-0.22-0.5-0.5c0-0.28,0.22-0.5,0.5-0.5h47.81c0.28,0,0.5,0.22,0.5,0.5
					C638.63,308.25,638.41,308.47,638.13,308.47z"/>
				<path class="st0" d="M614.22,313.56h-23.91c-0.28,0-0.5-0.22-0.5-0.5c0-0.28,0.22-0.5,0.5-0.5h23.91c0.28,0,0.5,0.22,0.5,0.5
					C614.72,313.33,614.5,313.56,614.22,313.56z"/>
			</g>
		</g>
		<g>
			<path class="st7" d="M448.58,68.5H573.9c1.16,0,2.1,0.94,2.1,2.1v41.21c0,1.16-0.94,2.1-2.1,2.1h-90.27l-20.68,20.68v-20.68
				h-14.37c-1.16,0-2.1-0.94-2.1-2.1V70.6C446.47,69.44,447.41,68.5,448.58,68.5z"/>
			<g>
				<path class="st0" d="M466.6,82.28h89.04c0.56,0,1.01-0.28,1.01-0.63c0-0.35-0.45-0.63-1.01-0.63H466.6
					c-0.56,0-1.01,0.28-1.01,0.63C465.59,82,466.04,82.28,466.6,82.28z"/>
				<path class="st0" d="M466.6,103.31h89.04c0.56,0,1.01-0.28,1.01-0.63c0-0.35-0.45-0.63-1.01-0.63H466.6
					c-0.56,0-1.01,0.28-1.01,0.63C465.59,103.03,466.04,103.31,466.6,103.31z"/>
				<g>
					<path class="st0" d="M509.1,92.37h46.55c0.56,0,1.01-0.28,1.01-0.63c0-0.35-0.45-0.63-1.01-0.63H509.1
						c-0.56,0-1.01,0.28-1.01,0.63C508.08,92.08,508.54,92.37,509.1,92.37z"/>
					<path class="st0" d="M480.09,92.37h20.24c0.56,0,1.01-0.28,1.01-0.63c0-0.35-0.45-0.63-1.01-0.63h-20.24
						c-0.56,0-1.01,0.28-1.01,0.63C479.08,92.08,479.53,92.37,480.09,92.37z"/>
				</g>
			</g>
		</g>
		<g>
			<g>
				<path class="st8" d="M532.44,198.97h63.35c2.83,0,5.14-2.31,5.14-5.14v-20.12c0-2.83-2.31-5.14-5.14-5.14h-63.35
					c-2.83,0-5.14,2.31-5.14,5.14v20.12C527.3,196.66,529.61,198.97,532.44,198.97z"/>
			</g>
			<g>
				<g>
					<path class="st0" d="M544.72,175h75.59c2.28,0,4.15-1.87,4.15-4.15v-23.16c0-2.28-1.87-4.15-4.15-4.15h-75.59
						c-2.28,0-4.15,1.87-4.15,4.15v23.16C540.57,173.13,542.44,175,544.72,175z"/>
					<path class="st9" d="M544.72,175h75.59c2.28,0,4.15-1.87,4.15-4.15v-23.16c0-2.28-1.87-4.15-4.15-4.15h-75.59
						c-2.28,0-4.15,1.87-4.15,4.15v23.16C540.57,173.13,542.44,175,544.72,175z"/>
				</g>
				<g>
					<g>
						<path class="st0" d="M597.84,162.91c-2.03,0-3.69-1.65-3.69-3.69c0-2.03,1.65-3.69,3.69-3.69c2.03,0,3.69,1.65,3.69,3.69
							C601.52,161.26,599.87,162.91,597.84,162.91z M597.84,156.54c-1.48,0-2.69,1.2-2.69,2.69s1.21,2.69,2.69,2.69
							c1.48,0,2.69-1.2,2.69-2.69S599.32,156.54,597.84,156.54z"/>
						<path class="st0" d="M582.8,162.91c-2.03,0-3.69-1.65-3.69-3.69c0-2.03,1.65-3.69,3.69-3.69c2.03,0,3.69,1.65,3.69,3.69
							C586.49,161.26,584.83,162.91,582.8,162.91z M582.8,156.54c-1.48,0-2.69,1.2-2.69,2.69s1.21,2.69,2.69,2.69
							c1.48,0,2.69-1.2,2.69-2.69S584.28,156.54,582.8,156.54z"/>
						<path class="st0" d="M568.78,162.91c-2.03,0-3.69-1.65-3.69-3.69c0-2.03,1.65-3.69,3.69-3.69c2.03,0,3.69,1.65,3.69,3.69
							C572.47,161.26,570.82,162.91,568.78,162.91z M568.78,156.54c-1.48,0-2.69,1.2-2.69,2.69s1.21,2.69,2.69,2.69
							c1.48,0,2.69-1.2,2.69-2.69S570.26,156.54,568.78,156.54z"/>
					</g>
				</g>
			</g>
		</g>
	</g>
	<g>
		<g>
			<g>
				<path class="st10" d="M568.85,420.38l0.2,0l-0.04,1.94l-21.1,0.31l0.03-1.43c0-0.22,0.14-0.41,0.33-0.48
					c0.05-0.02,0.1-0.04,0.16-0.04L568.85,420.38z"/>
				<path class="st10" d="M561.45,413.29l6.39-0.08c0.16,0,0.3,0.05,0.42,0.14c0.05,0.03,0.09,0.07,0.13,0.12
					c0.11,0.13,0.18,0.3,0.19,0.49l0.03,0.74l0.1,2.4l0.14,3.27l-20.42,0.3c-0.06,0-0.11,0.02-0.16,0.04
					c0.45-1.48,1.62-2.65,3.09-2.98l4.67-0.37c1.1-0.57,2.06-1.06,3.16-1.63l1.9-2.34c0.04-0.02,0.08-0.03,0.12-0.04
					c0.03-0.01,0.06-0.03,0.09-0.04C561.34,413.3,561.39,413.29,561.45,413.29z"/>
			</g>
			<path class="st10" d="M606.45,342.07l-14.87-42.74l-0.2-1.59H550.7v22.38c0,2.87,0.13,5.74,0.39,8.6l7.75,86.01h11.19l2.82-97.77
				l0.64-0.09l15.87,31.74l-11.93,26.85c-0.16,0.36-0.05,0.78,0.26,1.03l7.48,5.82c0.6,0.47,1.48,0.29,1.86-0.37l18.83-33.17
				C607,346.73,607.22,344.29,606.45,342.07z"/>
			<g>
				<path class="st10" d="M574.77,381.04l-0.14-0.14l-1.34,1.41l14.77,15.07l0.99-1.04c0.15-0.16,0.19-0.39,0.11-0.57
					c-0.02-0.05-0.05-0.1-0.09-0.14L574.77,381.04z"/>
				<path class="st10" d="M585.02,381.22l-4.48-4.55c-0.11-0.11-0.25-0.18-0.4-0.2c-0.06-0.01-0.11-0.01-0.17-0.01
					c-0.17,0.01-0.34,0.09-0.48,0.22l-0.55,0.51l-1.76,1.63l-2.4,2.23l14.3,14.59c0.04,0.04,0.07,0.09,0.09,0.14
					c0.72-1.37,0.71-3.02-0.09-4.29l-3.06-3.55c-0.38-1.18-0.71-2.21-1.1-3.39l0.3-3c-0.01-0.04-0.03-0.08-0.05-0.11
					c-0.01-0.03-0.02-0.06-0.04-0.09C585.09,381.3,585.06,381.26,585.02,381.22z"/>
			</g>
		</g>
		<g>
			<g>
				<path class="st11" d="M601.56,256.04c-0.64-1.11-7.58,5.63-9.16,12.21c-0.06,0.26,0.13-0.23,0,0l5.94,8.4l-16.12,18.04
					l4.07,3.05c0,0,23.4-15.26,24.84-20.86C612.17,272.91,604.54,261.2,601.56,256.04z"/>
			</g>
			<g>
				<path class="st11" d="M515.49,254.12c-0.36-0.9-1.23-2.14-3.2-3.73l-3.56-3.13c-0.26-0.23-0.64-0.25-0.91-0.05l-0.1,0.08
					c-0.28,0.21-0.35,0.61-0.16,0.92l1.6,2.58c0.3,0.49-0.05,1.09-0.62,1.05l-3.73-0.27c-0.04,0-0.07-0.01-0.11-0.02l-4.72-1.07
					c-0.36-0.08-0.71,0.12-0.82,0.46l-0.05,0.16c-0.11,0.38,0.12,0.78,0.51,0.9l4.89,1.47l-6.03-0.92c-0.4-0.06-0.75,0.21-0.79,0.6
					l-0.01,0.08c-0.03,0.36,0.21,0.7,0.57,0.78l6.07,1.47l-5.31-0.55c-0.47-0.05-0.84,0.36-0.74,0.82l0.04,0.19
					c0.06,0.29,0.3,0.52,0.59,0.58l5.2,1.02l-3.7,0.17c-0.31,0.01-0.56,0.22-0.63,0.51c-0.1,0.42,0.21,0.85,0.65,0.89l4.04,0.44
					c0.03,0,0.05,0.01,0.07,0.01c0.54,0.12,7.01,1.51,9.52,1.63c0.03,0,0.06,0,0.09,0l26.37,2.55c0.08-0.01,0.15-0.03,0.22-0.04
					c-1.3-3.92-2.1-7.96-2.42-12.05L515.49,254.12z"/>
				<path class="st12" d="M601.89,256.17c-2.76-3.32-5.52-6.31-7.19-7.9c-4.44-4.22-12.57-3.66-12.57-3.66l-22.14,1.74
					c-2.54,0.2-5.07,0.54-7.57,1.03c-4.88,0.94-9.26,1.8-14.19,2.84c0.02,0.48,0.06,0.96,0.1,1.44c0.32,4.09,1.12,8.13,2.42,12.05
					c0.05,0.16,0.1,0.32,0.16,0.49c5.64-0.58,9.93-1.05,9.93-1.05l-0.13,45.78l40.69-9.16l-1.84-33.54l2.88,1.84
					C595.14,263.79,598.39,259.89,601.89,256.17z"/>
			</g>
		</g>
		<g>
			<path class="st10" d="M592.67,236.64c-1.77-6.06-5.43-7.82-7.85-8.29c1.5-2.49,2.65-5.33,2.93-8.44
				c0.79-8.84-13.83-23.48-22.38-12.76c-2.81,0.06-6.11,1.31-9.39,5.27c-6.17,7.45-4.29,13.43-2.29,16.64
				c0.95,1.53,2.38,2.69,4.07,3.32l12.99,4.87c2.67,1,5.67,0.43,7.79-1.47c0.81-0.73,1.7-1.59,2.58-2.55
				c4.37,1.87,2.25,6.03,2.25,6.03c-4.35,9.37,0.99,14.06,5.01,16.82c1.74,1.19,4.14,0.22,4.52-1.85
				C593.68,249.92,594.46,242.79,592.67,236.64z"/>
			<g>
				<g>
					<path class="st11" d="M579.56,223.15l-0.64-0.04c0,0-0.02,0.02-0.04,0.03l-2.82,4.5c-3.74-1.88-5.08-6.68-5.49-10.93
						c-3.05,2.03-7.98,4.35-14.6,4.37l-1.12,10.9c-0.61,5.96,4.8,10.48,9.57,10.77l-0.07,3.63c-0.69,4.1,1.57,7.9,5.01,8.39
						c3.2,0.46,6.28-2.14,7.05-5.94l1.3-17.71c0.07-0.01,0.14-0.03,0.21-0.05l1.15,0.07c1.47,0.09,2.74-1.03,2.83-2.5l0.16-2.67
						C582.15,224.5,581.03,223.24,579.56,223.15z"/>
				</g>
				<polygon class="st13" points="573.01,242.81 564.42,242.96 564.36,246.02 				"/>
			</g>
			<g>
				<g>
					<g>
						<g>
							<g>
								<path class="st10" d="M559.71,224.67c-0.2,0.09-0.45,0.04-0.69,0.01c-0.25-0.04-0.49-0.07-0.71-0.08
									c-0.22-0.02-0.46-0.02-0.71-0.02c-0.25-0.01-0.5,0.01-0.69-0.12c-0.18-0.11-0.24-0.4,0-0.74c0.23-0.33,0.79-0.66,1.5-0.61
									c0.71,0.06,1.22,0.47,1.4,0.82C560,224.3,559.91,224.58,559.71,224.67z"/>
							</g>
							<g>
								<path class="st10" d="M568.24,225.19c-0.2,0.09-0.45,0.04-0.69,0.01c-0.25-0.04-0.49-0.07-0.71-0.08
									c-0.22-0.02-0.46-0.02-0.71-0.02c-0.25-0.01-0.5,0.01-0.69-0.12c-0.18-0.11-0.24-0.4,0-0.74c0.23-0.33,0.79-0.66,1.5-0.61
									c0.71,0.06,1.22,0.47,1.4,0.82C568.53,224.83,568.43,225.1,568.24,225.19z"/>
							</g>
							<path class="st10" d="M557.79,228.17L557.79,228.17c-0.3-0.03-0.53-0.3-0.5-0.6l0.11-1.1c0.03-0.3,0.3-0.53,0.6-0.5l0,0
								c0.3,0.03,0.53,0.3,0.5,0.6l-0.11,1.1C558.36,227.98,558.09,228.2,557.79,228.17z"/>
							<path class="st10" d="M566.05,228.97L566.05,228.97c-0.3-0.03-0.53-0.3-0.5-0.6l0.11-1.1c0.03-0.3,0.3-0.53,0.6-0.5l0,0
								c0.3,0.03,0.53,0.3,0.5,0.6l-0.11,1.1C566.62,228.78,566.35,229,566.05,228.97z"/>
						</g>
					</g>
					<path class="st12" d="M562.37,231.04c0,0-0.01,0-0.02,0l-0.88-0.05c-0.54-0.03-1.02-0.34-1.28-0.82
						c-0.26-0.48-0.25-1.05,0.02-1.52l0.04-0.07l0.08-0.03c0.79-0.34,1.35-1.08,1.46-1.94l0.04-0.32c0.02-0.14,0.13-0.24,0.28-0.22
						c0.14,0.02,0.23,0.14,0.22,0.28l-0.04,0.32c-0.12,1-0.76,1.88-1.67,2.3c-0.15,0.31-0.14,0.66,0.02,0.96
						c0.18,0.33,0.5,0.53,0.87,0.56l0.88,0.05c0.14,0.01,0.24,0.13,0.23,0.26C562.61,230.94,562.5,231.04,562.37,231.04z"/>
					<g>
						<g>
							<path class="st0" d="M565.62,235.71l-2.19-0.13c-0.49-0.03-0.87-0.46-0.84-0.95l0.13-2.15l5.08,0.31l-0.06,1.06
								C567.67,234.94,566.72,235.77,565.62,235.71z"/>
						</g>
					</g>
				</g>
			</g>
		</g>
	</g>
	<g>
		<g>
			<g>
				<path class="st6" d="M242.53,367.83h-96.27c-2.49,0-4.5-2.01-4.5-4.5V258.4c0-2.49,2.01-4.5,4.5-4.5h96.27
					c2.49,0,4.5,2.01,4.5,4.5v104.93C247.03,365.82,245.02,367.83,242.53,367.83z"/>
				<path class="st0" d="M223.42,275.26h-58.06c-1.08,0-1.95-0.87-1.95-1.95v-8.08c0-1.08,0.87-1.95,1.95-1.95h58.06
					c1.08,0,1.95,0.87,1.95,1.95v8.08C225.38,274.39,224.5,275.26,223.42,275.26z"/>
				<path class="st0" d="M223.42,284.54h-58.06c-1.08,0-1.95-0.87-1.95-1.95v-0.07c0-1.08,0.87-1.95,1.95-1.95h58.06
					c1.08,0,1.95,0.87,1.95,1.95v0.07C225.38,283.67,224.5,284.54,223.42,284.54z"/>
				<path class="st0" d="M223.42,293.7h-58.06c-1.08,0-1.95-0.87-1.95-1.95v-0.07c0-1.08,0.87-1.95,1.95-1.95h58.06
					c1.08,0,1.95,0.87,1.95,1.95v0.07C225.38,292.83,224.5,293.7,223.42,293.7z"/>
				<path class="st0" d="M167.41,307.2c0,2.76-2.24,5-5,5c-2.76,0-5-2.24-5-5c0-2.76,2.24-5,5-5
					C165.17,302.2,167.41,304.44,167.41,307.2z"/>
				<path class="st0" d="M167.41,329.86c0,2.76-2.24,5-5,5c-2.76,0-5-2.24-5-5s2.24-5,5-5C165.17,324.86,167.41,327.1,167.41,329.86
					z"/>
				<path class="st0" d="M167.41,351.84c0,2.76-2.24,5-5,5c-2.76,0-5-2.24-5-5c0-2.76,2.24-5,5-5
					C165.17,346.85,167.41,349.08,167.41,351.84z"/>
				<path class="st0" d="M218.05,305.26h-47.81c-0.28,0-0.5-0.22-0.5-0.5s0.22-0.5,0.5-0.5h47.81c0.28,0,0.5,0.22,0.5,0.5
					S218.33,305.26,218.05,305.26z"/>
				<path class="st0" d="M194.15,310.35h-23.91c-0.28,0-0.5-0.22-0.5-0.5c0-0.28,0.22-0.5,0.5-0.5h23.91c0.28,0,0.5,0.22,0.5,0.5
					C194.65,310.12,194.42,310.35,194.15,310.35z"/>
				<path class="st0" d="M218.05,328.66h-47.81c-0.28,0-0.5-0.22-0.5-0.5c0-0.28,0.22-0.5,0.5-0.5h47.81c0.28,0,0.5,0.22,0.5,0.5
					C218.55,328.44,218.33,328.66,218.05,328.66z"/>
				<path class="st0" d="M194.15,333.75h-23.91c-0.28,0-0.5-0.22-0.5-0.5s0.22-0.5,0.5-0.5h23.91c0.28,0,0.5,0.22,0.5,0.5
					S194.42,333.75,194.15,333.75z"/>
				<path class="st0" d="M218.05,350.02h-47.81c-0.28,0-0.5-0.22-0.5-0.5c0-0.28,0.22-0.5,0.5-0.5h47.81c0.28,0,0.5,0.22,0.5,0.5
					C218.55,349.8,218.33,350.02,218.05,350.02z"/>
				<path class="st0" d="M194.15,355.11h-23.91c-0.28,0-0.5-0.22-0.5-0.5s0.22-0.5,0.5-0.5h23.91c0.28,0,0.5,0.22,0.5,0.5
					S194.42,355.11,194.15,355.11z"/>
			</g>
		</g>
		<g>
			<path class="st14" d="M201.7,199.07h-82.93c-0.77,0-1.39,0.62-1.39,1.39v27.27c0,0.77,0.62,1.39,1.39,1.39h59.74l13.69,13.69
				v-13.69h9.51c0.77,0,1.39-0.62,1.39-1.39v-27.27C203.1,199.69,202.47,199.07,201.7,199.07z"/>
			<g>
				<path class="st0" d="M189.78,208.19h-58.93c-0.37,0-0.67-0.19-0.67-0.42c0-0.23,0.3-0.42,0.67-0.42h58.93
					c0.37,0,0.67,0.19,0.67,0.42C190.45,208.01,190.15,208.19,189.78,208.19z"/>
				<path class="st0" d="M189.78,222.11h-58.93c-0.37,0-0.67-0.19-0.67-0.42s0.3-0.42,0.67-0.42h58.93c0.37,0,0.67,0.19,0.67,0.42
					S190.15,222.11,189.78,222.11z"/>
				<g>
					<path class="st0" d="M161.65,214.87h-30.8c-0.37,0-0.67-0.19-0.67-0.42s0.3-0.42,0.67-0.42h30.8c0.37,0,0.67,0.19,0.67,0.42
						S162.02,214.87,161.65,214.87z"/>
					<path class="st0" d="M180.85,214.87h-13.39c-0.37,0-0.67-0.19-0.67-0.42s0.3-0.42,0.67-0.42h13.39c0.37,0,0.67,0.19,0.67,0.42
						S181.22,214.87,180.85,214.87z"/>
				</g>
			</g>
		</g>
		<g>
			<g>
				<path class="st8" d="M281.74,180.67H171.78c-4.9,0-8.92-4.01-8.92-8.92v-34.92c0-4.9,4.01-8.92,8.92-8.92h109.96
					c4.9,0,8.92,4.01,8.92,8.92v34.92C290.66,176.66,286.65,180.67,281.74,180.67z"/>
			</g>
			<g>
				<g>
					<path class="st0" d="M260.42,139.07H129.21c-3.96,0-7.21-3.24-7.21-7.21V91.67c0-3.96,3.24-7.21,7.21-7.21h131.21
						c3.96,0,7.21,3.24,7.21,7.21v40.19C267.62,135.83,264.38,139.07,260.42,139.07z"/>
					<path class="st9" d="M260.42,139.07H129.21c-3.96,0-7.21-3.24-7.21-7.21V91.67c0-3.96,3.24-7.21,7.21-7.21h131.21
						c3.96,0,7.21,3.24,7.21,7.21v40.19C267.62,135.83,264.38,139.07,260.42,139.07z"/>
				</g>
				<g>
					<g>
						<path class="st0" d="M168.23,117.73c-3.32,0-6.03-2.71-6.03-6.03s2.71-6.03,6.03-6.03c3.32,0,6.03,2.71,6.03,6.03
							S171.55,117.73,168.23,117.73z M168.23,106.67c-2.77,0-5.03,2.26-5.03,5.03s2.26,5.03,5.03,5.03c2.77,0,5.03-2.26,5.03-5.03
							S171,106.67,168.23,106.67z"/>
						<path class="st0" d="M194.33,117.73c-3.32,0-6.03-2.71-6.03-6.03s2.7-6.03,6.03-6.03c3.32,0,6.03,2.71,6.03,6.03
							S197.65,117.73,194.33,117.73z M194.33,106.67c-2.77,0-5.03,2.26-5.03,5.03s2.26,5.03,5.03,5.03c2.77,0,5.03-2.26,5.03-5.03
							S197.1,106.67,194.33,106.67z"/>
						<path class="st0" d="M218.66,117.73c-3.32,0-6.03-2.71-6.03-6.03s2.71-6.03,6.03-6.03c3.32,0,6.03,2.71,6.03,6.03
							S221.98,117.73,218.66,117.73z M218.66,106.67c-2.77,0-5.03,2.26-5.03,5.03s2.26,5.03,5.03,5.03c2.77,0,5.03-2.26,5.03-5.03
							S221.43,106.67,218.66,106.67z"/>
					</g>
				</g>
			</g>
		</g>
	</g>
	<g>
		<g>
			<rect x="341.97" y="365.61" class="st15" width="65.49" height="47.95"/>
			<path class="st15" d="M529,350.41H220.42c-4.56,0-8.26-3.7-8.26-8.26V159.42c0-4.56,3.7-8.26,8.26-8.26H529
				c4.56,0,8.26,3.7,8.26,8.26v182.73C537.27,346.71,533.57,350.41,529,350.41z"/>
			<path class="st16" d="M527.6,370.29H221.82c-5.34,0-9.67-5.1-9.67-11.39v-29.54h325.11v29.54
				C537.27,365.19,532.94,370.29,527.6,370.29z"/>
			<path class="st0" d="M521.46,328.64H227.96c-0.98,0-1.77-0.79-1.77-1.77V166.69c0-0.98,0.79-1.77,1.77-1.77h293.49
				c0.98,0,1.77,0.79,1.77,1.77v160.18C523.23,327.84,522.44,328.64,521.46,328.64z"/>
			<path class="st1" d="M500.9,317.67H248.53c-0.98,0-1.77-0.79-1.77-1.77V178.38c0-0.98,0.79-1.77,1.77-1.77H500.9
				c0.98,0,1.77,0.79,1.77,1.77v137.51C502.67,316.87,501.88,317.67,500.9,317.67z"/>
			<path class="st0" d="M374.71,362.02c-6.56,0-11.9-5.34-11.9-11.9s5.34-11.9,11.9-11.9c6.56,0,11.9,5.34,11.9,11.9
				S381.27,362.02,374.71,362.02z M374.71,339.22c-6.01,0-10.9,4.89-10.9,10.9c0,6.01,4.89,10.9,10.9,10.9
				c6.01,0,10.9-4.89,10.9-10.9C385.61,344.11,380.72,339.22,374.71,339.22z"/>
			<path class="st16" d="M444.29,421.75H305.13v-2.03c0-6.63,5.37-12,12-12h115.17c6.63,0,12,5.37,12,12V421.75z"/>
			<g>
				<circle class="st17" cx="374.71" cy="213.76" r="8.69"/>
				<circle class="st18" cx="374.71" cy="279.8" r="8.69"/>
				<circle class="st19" cx="407.73" cy="246.78" r="8.69"/>
				<circle class="st0" cx="341.69" cy="246.78" r="8.69"/>
				<path class="st20" d="M404.2,229.58c-3.39,3.39-8.89,3.39-12.29,0c-3.39-3.39-3.39-8.89,0-12.29c3.39-3.39,8.89-3.39,12.29,0
					C407.6,220.68,407.6,226.18,404.2,229.58z"/>
				<circle class="st21" cx="351.36" cy="270.13" r="8.69"/>
				<path class="st22" d="M391.91,276.27c-3.39-3.39-3.39-8.89,0-12.29c3.39-3.39,8.89-3.39,12.29,0c3.39,3.39,3.39,8.9,0,12.29
					C400.81,279.66,395.31,279.66,391.91,276.27z"/>
				<path class="st0" d="M345.22,229.58c-3.39-3.39-3.39-8.89,0-12.29c3.39-3.39,8.9-3.39,12.29,0c3.39,3.39,3.39,8.89,0,12.29
					C354.11,232.97,348.61,232.97,345.22,229.58z"/>
			</g>
			<g>
				<path class="st8" d="M521.46,181.67H227.96c-0.98,0-1.77-0.79-1.77-1.77v-13.21c0-0.98,0.79-1.77,1.77-1.77h293.49
					c0.98,0,1.77,0.79,1.77,1.77v13.21C523.23,180.88,522.44,181.67,521.46,181.67z"/>
				<path class="st3" d="M494.75,173.03c0,0.84-0.68,1.53-1.53,1.53c-0.84,0-1.53-0.68-1.53-1.53s0.68-1.53,1.53-1.53
					C494.06,171.5,494.75,172.18,494.75,173.03z"/>
				<path class="st3" d="M511.02,173.03c0,0.84-0.68,1.53-1.53,1.53s-1.53-0.68-1.53-1.53s0.68-1.53,1.53-1.53
					S511.02,172.18,511.02,173.03z"/>
				<circle class="st3" cx="501.36" cy="173.03" r="1.53"/>
			</g>
		</g>
		<g>
			<path class="st23" d="M235.63,342.83l1.57-4.52c0.7-2,2.58-3.35,4.71-3.35h39.11c2.75,0,4.98,2.23,4.98,4.98v6.23v10.27v61.34
				c0,2.75-2.23,4.98-4.98,4.98h-118c-2.75,0-4.98-2.23-4.98-4.98v-66.63c0-2.75,2.23-4.98,4.98-4.98h67.91
				C233.04,346.17,234.93,344.83,235.63,342.83z"/>
			<path class="st24" d="M238.52,347.42l1.48-4.26c0.66-1.89,2.44-3.15,4.44-3.15h36.87c2.59,0,4.7,2.1,4.7,4.7v5.87v9.68v57.81
				c0,2.59-2.1,4.7-4.7,4.7H170.08c-2.59,0-4.7-2.1-4.7-4.7v-62.8c0-2.59,2.1-4.7,4.7-4.7h64.01
				C236.08,350.57,237.86,349.31,238.52,347.42z"/>
		</g>
	</g>
	<g>
		<g>
			<circle class="st25" cx="431.67" cy="263.15" r="69.73"/>
			
				<ellipse transform="matrix(0.9755 -0.22 0.22 0.9755 -38.0389 101.2496)" class="st1" cx="435.65" cy="221.44" rx="15.08" ry="15.08"/>
		</g>
		<path class="st4" d="M431.67,334.88c-39.55,0-71.73-32.18-71.73-71.73s32.18-71.73,71.73-71.73s71.73,32.18,71.73,71.73
			S471.22,334.88,431.67,334.88z M431.67,195.42c-37.35,0-67.73,30.38-67.73,67.73c0,37.35,30.38,67.73,67.73,67.73
			c37.34,0,67.73-30.38,67.73-67.73C499.39,225.8,469.01,195.42,431.67,195.42z"/>
		<g>
			<g>
				<path class="st15" d="M543.26,362.12l-45.94-45c-0.9-0.89-1.94-1.55-3.04-2.01c11.71-14.1,18.76-32.2,18.76-51.96
					c0-44.94-36.43-81.37-81.37-81.37s-81.37,36.43-81.37,81.37s36.43,81.37,81.37,81.37c18.81,0,36.11-6.4,49.89-17.11
					c0.48,1.28,1.23,2.47,2.27,3.49l45.94,45c1.88,1.84,4.31,2.75,6.75,2.75c2.5,0,5-0.97,6.89-2.9
					C547.13,371.95,547.07,365.85,543.26,362.12z M361.94,263.15c0-38.51,31.22-69.73,69.73-69.73s69.73,31.22,69.73,69.73
					s-31.22,69.73-69.73,69.73S361.94,301.66,361.94,263.15z"/>
			</g>
		</g>
		<g>
			<g>
				<path class="st23" d="M592.39,400.91l-66.85-66.85c-1.67-1.67-26.34,22.88-24.61,24.61l66.85,66.85c6.8,6.8,17.81,6.8,24.61,0v0
					C599.19,418.73,599.19,407.71,592.39,400.91z M587.35,412.24c0,3.38-2.74,6.11-6.11,6.11c-3.38,0-6.11-2.74-6.11-6.11v0
					c0-3.38,2.74-6.11,6.11-6.11C584.61,406.13,587.35,408.87,587.35,412.24L587.35,412.24z"/>
			</g>
			<g class="st26">
				<path class="st0" d="M584.61,417.34c-0.97,0.64-2.13,1.02-3.38,1.02c-3.38,0-6.11-2.74-6.11-6.11v0c0-1.32,0.43-2.55,1.14-3.55
					c-15.26-15.77-37.78-38.95-51.37-52.91c-7.02-7.21-11.65-11.96-11.66-11.95c-6.61,6.47-13.23,13.91-12.3,14.84l66.85,66.85
					c6.8,6.8,17.81,6.8,24.61,0v0C592.43,425.49,589.44,422.35,584.61,417.34z"/>
			</g>
			<path class="st0" d="M529.21,338.3l-24.13,24.13c-1.1,1.1-2.89,1.1-3.99,0l-4.35-4.35c-1.1-1.1-1.1-2.89,0-3.99l24.13-24.13
				c1.1-1.1,2.89-1.1,3.99,0l4.35,4.35C530.31,335.41,530.31,337.2,529.21,338.3z"/>
		</g>
	</g>
</g>
<g id="DESIGNED_BY_FREEPIK">
</g>
</svg>
